<svg width="162" height="181" viewBox="0 0 162 181" fill="none" xmlns="http://www.w3.org/2000/svg">
        <path d="M156.833 178.434C156.833 177.053 157.954 175.932 159.335 175.932C160.716 175.932 161.837 177.053 161.837 178.434C161.837 179.814 160.716 180.935 159.335 180.935C157.954 180.935 156.833 179.814 156.833 178.434Z" fill="#FF4A17"></path>
        <path d="M117.65 178.434C117.65 177.053 118.771 175.932 120.152 175.932C121.533 175.932 122.653 177.053 122.653 178.434C122.653 179.814 121.533 180.935 120.152 180.935C118.771 180.935 117.65 179.814 117.65 178.434Z" fill="#FF4A17"></path>
        <path d="M78.4694 178.434C78.4694 177.053 79.5902 175.932 80.971 175.932C82.3517 175.932 83.4726 177.053 83.4726 178.434C83.4726 179.814 82.3517 180.935 80.971 180.935C79.5876 180.935 78.4694 179.814 78.4694 178.434Z" fill="#FF4A17"></path>
        <path d="M39.286 178.434C39.286 177.053 40.4069 175.932 41.7876 175.932C43.1684 175.932 44.2893 177.053 44.2893 178.434C44.2893 179.814 43.1684 180.935 41.7876 180.935C40.4069 180.935 39.286 179.814 39.286 178.434Z" fill="#FF4A17"></path>
        <path d="M0.102661 178.434C0.102661 177.053 1.22354 175.932 2.60429 175.932C3.98504 175.932 5.10591 177.053 5.10591 178.434C5.10591 179.814 3.98504 180.935 2.60429 180.935C1.22091 180.935 0.102661 179.814 0.102661 178.434Z" fill="#FF4A17"></path>
        <path d="M156.833 143.419C156.833 142.038 157.954 140.917 159.335 140.917C160.716 140.917 161.837 142.038 161.837 143.419C161.837 144.799 160.716 145.92 159.335 145.92C157.954 145.92 156.833 144.799 156.833 143.419Z" fill="#FF4A17"></path>
        <path d="M117.65 143.419C117.65 142.038 118.771 140.917 120.152 140.917C121.533 140.917 122.653 142.038 122.653 143.419C122.653 144.799 121.533 145.92 120.152 145.92C118.771 145.92 117.65 144.799 117.65 143.419Z" fill="#FF4A17"></path>
        <path d="M78.4694 143.419C78.4694 142.038 79.5902 140.917 80.971 140.917C82.3517 140.917 83.4726 142.038 83.4726 143.419C83.4726 144.799 82.3517 145.92 80.971 145.92C79.5876 145.92 78.4694 144.799 78.4694 143.419Z" fill="#FF4A17"></path>
        <path d="M39.286 143.419C39.286 142.038 40.4069 140.917 41.7876 140.917C43.1684 140.917 44.2893 142.038 44.2893 143.419C44.2893 144.799 43.1684 145.92 41.7876 145.92C40.4069 145.92 39.286 144.799 39.286 143.419Z" fill="#FF4A17"></path>
        <path d="M0.102661 143.419C0.102661 142.038 1.22354 140.917 2.60429 140.917C3.98504 140.917 5.10591 142.038 5.10591 143.419C5.10591 144.799 3.98504 145.92 2.60429 145.92C1.22091 145.92 0.102661 144.799 0.102661 143.419Z" fill="#FF4A17"></path>
        <path d="M156.833 108.404C156.833 107.023 157.954 105.902 159.335 105.902C160.716 105.902 161.837 107.023 161.837 108.404C161.837 109.785 160.716 110.906 159.335 110.906C157.954 110.906 156.833 109.787 156.833 108.404Z" fill="#FF4A17"></path>
        <path d="M120.152 110.906C121.533 110.906 122.653 109.786 122.653 108.404C122.653 107.022 121.533 105.902 120.152 105.902C118.77 105.902 117.65 107.022 117.65 108.404C117.65 109.786 118.77 110.906 120.152 110.906Z" fill="#FF4A17"></path>
        <path d="M80.9684 110.906C82.35 110.906 83.47 109.786 83.47 108.404C83.47 107.022 82.35 105.902 80.9684 105.902C79.5868 105.902 78.4668 107.022 78.4668 108.404C78.4668 109.786 79.5868 110.906 80.9684 110.906Z" fill="#FF4A17"></path>
        <path d="M39.286 108.404C39.286 107.023 40.4069 105.902 41.7876 105.902C43.1684 105.902 44.2893 107.023 44.2893 108.404C44.2893 109.785 43.1684 110.906 41.7876 110.906C40.4069 110.906 39.286 109.787 39.286 108.404Z" fill="#FF4A17"></path>
        <path d="M0.102661 108.404C0.102661 107.023 1.22354 105.902 2.60429 105.902C3.98504 105.902 5.10591 107.023 5.10591 108.404C5.10591 109.785 3.98504 110.906 2.60429 110.906C1.22091 110.906 0.102661 109.787 0.102661 108.404Z" fill="#FF4A17"></path>
        <path d="M156.833 73.3918C156.833 72.011 157.954 70.8901 159.335 70.8901C160.716 70.8901 161.837 72.011 161.837 73.3918C161.837 74.7725 160.716 75.8934 159.335 75.8934C157.954 75.8908 156.833 74.7725 156.833 73.3918Z" fill="#FF4A17"></path>
        <path d="M120.152 75.8934C121.533 75.8934 122.653 74.7734 122.653 73.3918C122.653 72.0102 121.533 70.8901 120.152 70.8901C118.77 70.8901 117.65 72.0102 117.65 73.3918C117.65 74.7734 118.77 75.8934 120.152 75.8934Z" fill="#FF4A17"></path>
        <path d="M80.9684 75.8934C82.35 75.8934 83.47 74.7734 83.47 73.3918C83.47 72.0102 82.35 70.8901 80.9684 70.8901C79.5868 70.8901 78.4668 72.0102 78.4668 73.3918C78.4668 74.7734 79.5868 75.8934 80.9684 75.8934Z" fill="#FF4A17"></path>
        <path d="M39.286 73.3918C39.286 72.011 40.4069 70.8901 41.7876 70.8901C43.1684 70.8901 44.2893 72.011 44.2893 73.3918C44.2893 74.7725 43.1684 75.8934 41.7876 75.8934C40.4069 75.8934 39.286 74.7725 39.286 73.3918Z" fill="#FF4A17"></path>
        <path d="M0.102661 73.3918C0.102661 72.011 1.22354 70.8901 2.60429 70.8901C3.98504 70.8901 5.10591 72.011 5.10591 73.3918C5.10591 74.7725 3.98504 75.8934 2.60429 75.8934C1.22091 75.8908 0.102661 74.7725 0.102661 73.3918Z" fill="#FF4A17"></path>
        <path d="M156.833 38.3766C156.833 36.9959 157.954 35.875 159.335 35.875C160.716 35.875 161.837 36.9959 161.837 38.3766C161.837 39.7574 160.716 40.8782 159.335 40.8782C157.954 40.8756 156.833 39.7574 156.833 38.3766Z" fill="#FF4A17"></path>
        <path d="M120.152 40.8782C121.533 40.8782 122.653 39.7582 122.653 38.3766C122.653 36.995 121.533 35.875 120.152 35.875C118.77 35.875 117.65 36.995 117.65 38.3766C117.65 39.7582 118.77 40.8782 120.152 40.8782Z" fill="#FF4A17"></path>
        <path d="M80.9684 40.8782C82.35 40.8782 83.47 39.7582 83.47 38.3766C83.47 36.995 82.35 35.875 80.9684 35.875C79.5868 35.875 78.4668 36.995 78.4668 38.3766C78.4668 39.7582 79.5868 40.8782 80.9684 40.8782Z" fill="#FF4A17"></path>
        <path d="M39.286 38.3766C39.286 36.9959 40.4069 35.875 41.7876 35.875C43.1684 35.875 44.2893 36.9959 44.2893 38.3766C44.2893 39.7574 43.1684 40.8782 41.7876 40.8782C40.4069 40.8782 39.286 39.7574 39.286 38.3766Z" fill="#FF4A17"></path>
        <path d="M0.102661 38.3766C0.102661 36.9959 1.22354 35.875 2.60429 35.875C3.98504 35.875 5.10591 36.9959 5.10591 38.3766C5.10591 39.7574 3.98504 40.8782 2.60429 40.8782C1.22091 40.8756 0.102661 39.7574 0.102661 38.3766Z" fill="#FF4A17"></path>
        <path d="M156.833 3.36198C156.833 1.98123 157.954 0.860352 159.335 0.860352C160.716 0.860352 161.837 1.98123 161.837 3.36198C161.837 4.74273 160.716 5.8636 159.335 5.8636C157.954 5.8636 156.833 4.74273 156.833 3.36198Z" fill="#FF4A17"></path>
        <path d="M117.65 3.36198C117.65 1.98123 118.771 0.860352 120.152 0.860352C121.533 0.860352 122.653 1.98123 122.653 3.36198C122.653 4.74273 121.533 5.8636 120.152 5.8636C118.771 5.8636 117.65 4.74273 117.65 3.36198Z" fill="#FF4A17"></path>
        <path d="M78.4694 3.36198C78.4694 1.98123 79.5902 0.860352 80.971 0.860352C82.3517 0.860352 83.4726 1.98123 83.4726 3.36198C83.4726 4.74273 82.3517 5.8636 80.971 5.8636C79.5876 5.8636 78.4694 4.74273 78.4694 3.36198Z" fill="#FF4A17"></path>
        <path d="M39.286 3.36198C39.286 1.98123 40.4069 0.860352 41.7876 0.860352C43.1684 0.860352 44.2893 1.98123 44.2893 3.36198C44.2893 4.74273 43.1684 5.8636 41.7876 5.8636C40.4069 5.8636 39.286 4.74273 39.286 3.36198Z" fill="#FF4A17"></path>
        <path d="M0.102661 3.36198C0.102661 1.98123 1.22354 0.860352 2.60429 0.860352C3.98504 0.860352 5.10591 1.98123 5.10591 3.36198C5.10591 4.74273 3.98504 5.8636 2.60429 5.8636C1.22091 5.8636 0.102661 4.74273 0.102661 3.36198Z" fill="#FF4A17"></path>
      </svg>