<svg width="57" height="54" viewBox="0 0 57 54" fill="none" xmlns="http://www.w3.org/2000/svg">
  <path d="M22.6803 4.01786L24.2268 1.33929L24.8763 1.71429L25 1.5L25.1237 1.71429L25.7732 1.33929L27.3197 4.01786L26.6702 4.39286L28.2167 7.07143L28.8662 6.69643L30.4127 9.375L29.7631 9.75L31.3096 12.4286L31.9591 12.0536L33.5056 14.7321L32.8561 15.1071L34.4026 17.7857L35.0521 17.4107L36.5986 20.0893L35.949 20.4643L37.4955 23.1429L38.145 22.7679L39.6915 25.4464L39.042 25.8214L40.5885 28.5L41.238 28.125L42.7845 30.8036L42.1349 31.1786L43.6814 33.8571L44.3309 33.4821L45.8774 36.1607L45.2279 36.5357L45.3516 36.75H45.1042V37.5H42.0112V36.75H38.9183V37.5H35.8253V36.75H32.7324V37.5H29.6394V36.75H26.5465V37.5H23.4535V36.75H20.3606V37.5H17.2676V36.75H14.1747V37.5H11.0817V36.75H7.98879V37.5H4.89584V36.75H4.6484L4.77212 36.5357L4.1226 36.1607L5.66908 33.4821L6.3186 33.8571L7.86507 31.1786L7.21555 30.8036L8.76202 28.125L9.41154 28.5L10.958 25.8214L10.3085 25.4464L11.855 22.7679L12.5045 23.1429L14.051 20.4643L13.4014 20.0893L14.9479 17.4107L15.5974 17.7857L17.1439 15.1071L16.4944 14.7321L18.0409 12.0536L18.6904 12.4286L20.2369 9.75L19.5873 9.375L21.1338 6.69643L21.7833 7.07143L23.3298 4.39286L22.6803 4.01786Z" stroke="#999696" stroke-width="1.5" stroke-dasharray="3 3"></path>
  <path d="M32 4L53.6506 41.5H10.3494L32 4Z" fill="#FF4A17"></path>
</svg>